<?xml version="1.0" standalone="no"?>
<!DOCTYPE svg PUBLIC "-//W3C//DTD SVG 20010904//EN"
 "http://www.w3.org/TR/2001/REC-SVG-20010904/DTD/svg10.dtd">
<svg version="1.0" xmlns="http://www.w3.org/2000/svg"
 width="438.000000pt" height="438.000000pt" viewBox="0 0 438.000000 438.000000"
 preserveAspectRatio="xMidYMid meet">
<metadata>
Created by potrace 1.14, written by Peter Selinger 2001-2017
</metadata>
<g transform="translate(0.000000,438.000000) scale(0.100000,-0.100000)"
fill="#000000" stroke="none">
<path d="M2880 4374 c-170 -25 -306 -74 -463 -167 -395 -235 -681 -639 -752
-1066 -14 -80 -16 -136 -12 -245 6 -148 9 -171 32 -276 46 -204 79 -273 200
-410 122 -137 175 -187 265 -245 70 -46 319 -173 440 -225 41 -17 89 -37 105
-45 71 -31 230 -75 276 -76 68 -2 101 20 92 64 -3 17 -11 34 -16 36 -6 2 -29
21 -52 42 -90 83 -131 235 -86 315 12 22 40 52 62 69 54 40 70 68 74 127 4 64
-9 110 -49 173 -42 65 -87 108 -160 156 -78 52 -167 78 -285 85 -146 8 -156
38 -43 126 142 112 182 160 182 219 0 41 -19 66 -81 107 -57 38 -82 76 -85
126 -2 44 5 62 60 160 82 144 61 204 -104 294 -30 17 -64 42 -75 57 l-20 26
28 52 c70 135 203 263 342 332 140 68 192 79 392 80 95 0 175 4 179 8 21 21
-72 62 -197 87 -60 12 -207 20 -249 14z m-632 -500 c26 -18 29 -55 4 -77 -31
-28 -82 -4 -82 39 0 19 32 54 50 54 3 0 16 -7 28 -16z m42 -338 c0 8 78 -30
99 -49 52 -48 68 -139 29 -174 -33 -29 -109 -61 -194 -83 -40 -10 -89 -28
-108 -39 -81 -51 -176 -180 -292 -398 -34 -65 -66 -119 -72 -121 -14 -4 -20
58 -16 158 6 143 36 256 104 395 74 151 190 280 269 300 58 15 118 20 149 14
17 -4 32 -5 32 -3z m177 -387 c81 -30 132 -92 119 -143 -8 -31 -40 -54 -147
-106 -190 -93 -309 -156 -389 -207 -47 -29 -94 -59 -105 -66 -11 -6 -22 -14
-25 -18 -3 -3 -23 -18 -45 -35 -22 -16 -51 -39 -65 -51 -58 -53 -60 -18 -6 88
125 245 342 478 496 532 53 19 127 21 167 6z m56 -534 c170 -34 314 -131 372
-249 59 -121 34 -198 -82 -252 -139 -63 -402 -58 -603 12 -65 23 -215 94 -245
116 -166 124 -196 190 -118 260 47 43 214 105 323 120 83 12 278 8 353 -7z
m331 -809 c8 -29 -20 -66 -49 -66 -35 0 -62 43 -47 75 19 41 84 35 96 -9z"/>
<path d="M2385 2532 c-90 -9 -305 -61 -415 -99 -113 -39 -109 -32 -38 -65 153
-72 351 -139 482 -165 258 -49 391 30 312 185 -31 60 -57 85 -130 118 -57 26
-130 35 -211 26z"/>
<path d="M1418 2590 c-173 -52 -193 -258 -32 -329 48 -22 139 -26 193 -10 49
14 109 62 123 98 27 70 11 152 -38 195 -55 48 -168 70 -246 46z"/>
<path d="M1416 2053 c-44 -12 -96 -57 -118 -102 l-23 -46 0 -590 c0 -637 0
-628 54 -689 53 -59 151 -81 244 -55 50 14 113 71 128 117 10 28 13 180 14
617 1 319 -2 593 -7 609 -12 46 -49 93 -92 117 -40 22 -155 35 -200 22z"/>
</g>
</svg>
